<svg height="512pt" viewBox="-6 0 512 512.00006" width="512pt" xmlns="http://www.w3.org/2000/svg"><path d="m500.757812 262.035156c0 81.226563-38.902343 153.480469-99.019531 199.136719-7.449219 5.65625-18.164062.304687-18.164062-9.050781 0-17.640625-14.300781-31.945313-31.945313-31.945313h-272.183594c-15.148437 0-29.410156-7.449219-37.800781-20.0625-26.3125-39.5625-41.644531-87.03125-41.644531-138.078125 0-138.050781 112.097656-249.964844 250.378906-249.964844s250.378906 111.914063 250.378906 249.964844zm0 0" fill="#5de0c3"/><path d="m479.296875 124.300781h-87.886719v-64.867187c0-26.15625 21.203125-47.363282 47.359375-47.363282h6.804688c24.269531 0 43.941406 19.675782 43.941406 43.945313v58.066406c0 5.644531-4.574219 10.21875-10.21875 10.21875zm0 0" fill="#f5dc90"/><path d="m445.574219 12.074219c-24.269531 0-43.945313 19.640625-43.945313 43.871093v405.308594c-22.144531 16.789063-47.167968 29.972656-74.203125 38.6875-24.273437 7.824219-50.164062 8.980469-77.046875 8.976563-44.644531-.011719-86.554687-12.175781-122.847656-32.917969-26.535156-15.164062-42.707031-43.582031-42.707031-74.144531v-345.914063c0-24.226562 19.671875-43.871094 43.941406-43.871094h316.808594zm0 0" fill="#fff2b4"/><path d="m254.46875 130.429688v5.085937c0 2.820313-2.289062 5.109375-5.113281 5.109375h-71.535157c-2.820312 0-5.109374-2.289062-5.109374-5.109375v-5.085937c0-2.820313 2.289062-5.109376 5.109374-5.109376h71.535157c2.824219 0 5.113281 2.289063 5.113281 5.109376zm0 0" fill="#f8bb5e"/><path d="m295.34375 183.996094v5.082031c0 2.824219-2.285156 5.109375-5.109375 5.109375h-112.414063c-2.820312 0-5.109374-2.285156-5.109374-5.109375v-5.082031c0-2.824219 2.289062-5.109375 5.109374-5.109375h112.414063c2.824219 0 5.109375 2.285156 5.109375 5.109375zm-117.523438 40.800781h102.195313c2.820313 0 5.109375-2.289063 5.109375-5.109375v-5.085938c0-2.820312-2.289062-5.109374-5.109375-5.109374h-102.195313c-2.820312 0-5.109374 2.289062-5.109374 5.109374v5.085938c0 2.820312 2.289062 5.109375 5.109374 5.109375zm112.414063 15.304687h-112.414063c-2.820312 0-5.109374 2.285157-5.109374 5.109376v5.082031c0 2.824219 2.289062 5.109375 5.109374 5.109375h112.414063c2.824219 0 5.109375-2.285156 5.109375-5.109375v-5.082031c0-2.824219-2.285156-5.109376-5.109375-5.109376zm-12.945313 62.746094h-99.46875c-2.820312 0-5.109374 2.285156-5.109374 5.109375v5.082031c0 2.824219 2.289062 5.109376 5.109374 5.109376h99.46875c2.824219 0 5.109376-2.285157 5.109376-5.109376v-5.082031c0-2.824219-2.285157-5.109375-5.109376-5.109375zm-99.46875-16.324218h71.535157c2.824219 0 5.113281-2.289063 5.113281-5.113282v-5.082031c0-2.820313-2.289062-5.109375-5.113281-5.109375h-71.535157c-2.820312 0-5.109374 2.289062-5.109374 5.109375v5.082031c0 2.824219 2.289062 5.113282 5.109374 5.113282zm0 0" fill="#f5dc90"/><path d="m188.039062 360.476562v.03125c0 4.214844-3.417968 7.636719-7.636718 7.636719h-.054688c-4.21875 0-7.636718-3.421875-7.636718-7.636719v-.03125c0-4.21875 3.417968-7.636718 7.636718-7.636718h.054688c4.21875 0 7.636718 3.417968 7.636718 7.636718zm16.359376-7.636718h-.058594c-4.214844 0-7.636719 3.417968-7.636719 7.636718v.03125c0 4.21875 3.421875 7.636719 7.636719 7.636719h.058594c4.214843 0 7.636718-3.417969 7.636718-7.636719v-.03125c0-4.21875-3.421875-7.636718-7.636718-7.636718zm23.992187 0h-.054687c-4.21875 0-7.636719 3.417968-7.636719 7.636718v.03125c0 4.21875 3.417969 7.636719 7.636719 7.636719h.054687c4.21875 0 7.636719-3.417969 7.636719-7.636719v-.03125c0-4.21875-3.417969-7.636718-7.636719-7.636718zm0 0" fill="#fdd78d"/><path d="m111.394531 55.941406v364.234375h-26.570312v-364.234375c0-24.226562 19.671875-43.871094 43.941406-43.871094h26.570313c-24.269532.003907-43.941407 19.644532-43.941407 43.871094zm0 0" fill="#ffe899"/><path d="m191.203125 12.996094c13.96875 13.945312 17.203125 33.324218 7.226563 43.285156-9.980469 9.960938-29.390626 6.730469-43.359376-7.214844-13.96875-13.941406-17.203124-33.324218-7.226562-43.285156s29.390625-6.730469 43.359375 7.214844zm0 0" fill="#ecb700"/><path d="m191.203125 12.996094c2.285156 2.28125 4.28125 4.710937 5.980469 7.21875 1.175781 1.734375 1.332031 4 .355468 5.851562-.007812.007813-.011718.019532-.015624.03125-6.605469 12.449219-26.109376 15.0625-43.566407 5.832032-1.699219-.894532-3.3125-1.871094-4.839843-2.914063-5.691407-3.890625-7.957032-11.347656-5.125-17.628906.015624-.035157.03125-.070313.046874-.105469-.90625 2.226562-.917968 4.214844.191407 5.320312 1.996093 1.992188 6.847656.378907 10.839843-3.605468 3.992188-3.984375 5.609376-8.832032 3.613282-10.824219-1.105469-1.101563-3.09375-1.09375-5.324219-.191406 10.59375-4.832031 26.132813-.675781 37.84375 11.015625zm0 0" fill="#f1ca50"/><path d="m441.503906 146.0625-6.539062 30.78125c-3.863282 18.179688-19.9375 31.183594-38.554688 31.183594-10.664062 0-19.308594-8.628906-19.308594-19.277344 0-18.582031 13.027344-34.632812 31.238282-38.488281l30.828125-6.53125c1.394531-.296875 2.632812.941406 2.335937 2.332031zm-401.605468 142.835938 6.542968 30.78125c3.863282 18.179687 19.9375 31.183593 38.554688 31.183593 10.660156 0 19.304687-8.628906 19.304687-19.277343 0-18.582032-13.023437-34.632813-31.234375-38.488282l-30.828125-6.53125c-1.394531-.296875-2.632812.941406-2.339843 2.332032zm0 0" fill="#059b7e"/><path d="m409.539062 205.773438c-3.398437 1.199218-7.242187.113281-9.382812-2.785157-.082031-.113281-.164062-.226562-.246094-.339843-2.289062-3.246094-1.964844-7.632813.75-10.53125 3.714844-3.957032 7.179688-8.015626 10.117188-11.917969l13.472656-17.890625c.292969-.386719.253906-.925782-.089844-1.265625-.339844-.339844-.878906-.378907-1.265625-.089844l-17.917969 13.453125c-1.648437 1.238281-3.328124 2.566406-5.011718 3.96875-1.179688.984375-2.945313-.140625-2.527344-1.621094 3.097656-10.992187 10.933594-20.441406 21.964844-25.320312l15.242187-6.746094 4.523438-.957031c1.394531-.292969 2.628906.941406 2.335937 2.332031l-6.539062 30.78125c-2.914063 13.707031-12.773438 24.464844-25.425782 28.929688zm-336.472656 87.320312-30.828125-6.527344c-1.394531-.296875-2.632812.941406-2.335937 2.332032l.957031 4.515624 6.753906 15.214844c4.890625 11.015625 14.351563 18.835938 25.367188 21.933594 1.480469.414062 2.609375-1.347656 1.621093-2.527344-1.402343-1.683594-2.738281-3.355468-3.976562-5l-13.472656-17.890625c-.289063-.386719-.25-.925781.089844-1.265625.339843-.339844.878906-.378906 1.265624-.089844l17.917969 13.453126c3.910157 2.933593 7.976563 6.390624 11.941407 10.097656 2.902343 2.710937 7.296874 3.035156 10.546874.753906.117188-.082031.230469-.164062.34375-.25 2.902344-2.132812 3.992188-5.972656 2.789063-9.363281-4.46875-12.632813-15.246094-22.476563-28.980469-25.386719zm0 0" fill="#0ab59e"/><path d="m377.101562 245.710938c-33.863281 0-61.316406 27.40625-61.316406 61.214843 0 33.808594 27.453125 61.214844 61.316406 61.214844 33.863282 0 61.316407-27.40625 61.316407-61.214844 0-33.808593-27.453125-61.214843-61.316407-61.214843zm0 91.824218c-16.933593 0-30.660156-13.703125-30.660156-30.605468 0-16.90625 13.726563-30.609376 30.660156-30.609376 16.933594 0 30.660157 13.703126 30.660157 30.609376 0 16.902343-13.726563 30.605468-30.660157 30.605468zm0 0" fill="#fff5f5"/><path d="m377.101562 266.117188c-22.574218 0-40.878906 18.273437-40.878906 40.8125 0 22.539062 18.304688 40.808593 40.878906 40.808593 22.578126 0 40.878907-18.269531 40.878907-40.808593 0-22.539063-18.300781-40.8125-40.878907-40.8125zm0 61.214843c-11.289062 0-20.4375-9.132812-20.4375-20.40625 0-11.269531 9.148438-20.402343 20.4375-20.402343 11.289063 0 20.4375 9.132812 20.4375 20.402343 0 11.273438-9.148437 20.40625-20.4375 20.40625zm0 0" fill="#fddfa6"/><path d="m119.351562 156.996094c19.957032 19.921875 2.265626 41.019531-21.679687 64.929687-23.945313 23.90625-45.078125 41.5625-65.035156 21.640625s-16.71875-55.449218 7.226562-79.355468c23.945313-23.910157 59.535157-27.136719 79.488281-7.214844zm0 0" fill="#cc7556"/><path d="m139.859375 244.472656c-2.210937 3.9375-5.035156 7.695313-8.464844 11.117188-3.425781 3.421875-7.191406 6.242187-11.132812 8.449218-6.125 3.429688-13.878907 2.585938-18.878907-2.339843-.03125-.03125-.066406-.0625-.097656-.097657l-22.238281-22.199218c-9.363281 5.949218-18.9375 6.34375-27.441406-2.148438-14.136719-14.113281-11.84375-39.277344 5.117187-56.210937 16.960938-16.933594 42.171875-19.222657 56.304688-5.109375 8.503906 8.492187 8.109375 18.046875 2.148437 27.394531l22.242188 22.203125c.03125.03125.0625.066406.097656.097656 4.933594 4.992188 5.78125 12.734375 2.34375 18.84375zm0 0" fill="#994122"/><path d="m101.1875 189.363281c.03125.03125.066406.0625.101562.097657l36.128907 36.070312.097656.097656c4.761719 4.808594 5.941406 12.160156 2.746094 18.117188-.039063.074218-.078125.148437-.117188.21875-1.535156 2.820312-3.839843 5.121094-6.664062 6.652344-.070313.039062-.144531.078124-.21875.117187-5.96875 3.191406-13.332031 2.015625-18.144531-2.738281-.035157-.035156-.066407-.066406-.101563-.097656l-36.128906-36.074219c-.035157-.03125-.066407-.066407-.101563-.097657-4.757812-4.804687-5.941406-12.15625-2.746094-18.113281.039063-.074219.082032-.144531.121094-.21875 1.53125-2.820312 3.839844-5.125 6.667969-6.65625.070313-.042969.144531-.078125.21875-.117187 5.964844-3.191406 13.328125-2.011719 18.140625 2.742187zm0 0" fill="#cc7556"/><path d="m121.613281 398.75c0 5.636719-4.574219 10.203125-10.21875 10.203125s-10.222656-4.566406-10.222656-10.203125c0-5.632812 4.578125-10.203125 10.222656-10.203125s10.21875 4.570313 10.21875 10.203125zm10.21875-326.480469c-5.644531 0-10.21875 4.566407-10.21875 10.199219 0 5.636719 4.574219 10.203125 10.21875 10.203125s10.21875-4.566406 10.21875-10.203125c0-5.632812-4.574219-10.199219-10.21875-10.199219zm224.832031 316.277344c-5.644531 0-10.222656 4.570313-10.222656 10.203125 0 5.636719 4.578125 10.203125 10.222656 10.203125 5.644532 0 10.21875-4.566406 10.21875-10.203125 0-5.632812-4.574218-10.203125-10.21875-10.203125zm0 0" fill="#e43950"/><path d="m387.320312 123.28125c0 5.632812-4.574218 10.203125-10.21875 10.203125-5.644531 0-10.21875-4.570313-10.21875-10.203125 0-5.636719 4.574219-10.203125 10.21875-10.203125 5.644532 0 10.21875 4.566406 10.21875 10.203125zm71.539063 132.632812c-5.644531 0-10.21875 4.566407-10.21875 10.203126 0 5.632812 4.574219 10.203124 10.21875 10.203124s10.21875-4.570312 10.21875-10.203124c0-5.636719-4.574219-10.203126-10.21875-10.203126zm-51.097656-30.609374c-5.644531 0-10.222657 4.570312-10.222657 10.203124 0 5.636719 4.578126 10.203126 10.222657 10.203126s10.21875-4.566407 10.21875-10.203126c0-5.632812-4.574219-10.203124-10.21875-10.203124zm0 0" fill="#86523e"/><path d="m325.761719 2.128906c2.777343-2.777344 7.320312-2.867187 10.105469-.09375.019531.015625.035156.035156.050781.050782 19.957031 19.921874 19.957031 52.222656 0 72.140624-19.953125 19.921876-52.308594 19.921876-72.261719 0-.019531-.015624-.035156-.035156-.050781-.050781-2.777344-2.777343-2.6875-7.3125.09375-10.089843zm0 0" fill="#ef7280"/><path d="m317.660156 10.210938c1.988282 1.269531 3.875 2.765624 5.613282 4.5 12.96875 12.949218 12.96875 33.945312 0 46.894531-12.972657 12.949219-34 12.949219-46.972657 0-1.738281-1.734375-3.234375-3.617188-4.503906-5.601563zm0 0" fill="#e43950"/><path d="m325.453125 45.023438c-.566406 2.109374-4.449219 2.902343-8.675781 1.769531-4.222656-1.128907-7.191406-3.753907-6.625-5.863281.566406-2.109376 4.449218-2.902344 8.675781-1.773438 4.222656 1.132812 7.191406 3.757812 6.625 5.867188zm-22.890625 3.480468c-2.109375.566406-2.90625 4.445313-1.773438 8.664063 1.132813 4.214843 3.761719 7.175781 5.875 6.613281 2.113282-.566406 2.90625-4.441406 1.777344-8.660156-1.132812-4.21875-3.765625-7.179688-5.878906-6.617188zm-18.761719.023438c-3.09375 3.085937-4.347656 6.84375-2.800781 8.386718 1.546875 1.542969 5.304688.292969 8.398438-2.796874 3.09375-3.085938 4.347656-6.839844 2.800781-8.386719-1.546875-1.542969-5.304688-.292969-8.398438 2.796875zm34.773438-29.128906c-1.546875-1.542969-5.308594-.289063-8.398438 2.796874-3.09375 3.089844-4.347656 6.84375-2.800781 8.386719s5.308594.292969 8.398438-2.796875c3.09375-3.085937 4.347656-6.839844 2.800781-8.386718zm0 0" fill="#fd7c66"/><path d="m327.425781 499.941406c-24.273437 7.832032-50.183593 12.058594-77.070312 12.058594-87.292969 0-164.140625-44.609375-208.949219-112.230469h262.09375c5.644531 0 10.21875 4.570313 10.21875 10.203125v58.15625c0 12.515625 5.285156 23.820313 13.707031 31.8125zm0 0" fill="#fff5f5"/></svg>